<svg xmlns="http://www.w3.org/2000/svg" fill="none" viewBox="0 0 162.12 150.02890173410407" style="max-height: 500px" width="162.12" height="150.02890173410407">
<path fill="#ffffff" d="M219.9 128V37.7H270.21C286.722 37.7 296.268 47.633 296.268 64.79C296.268 75.755 291.882 83.624 284.013 87.623L296.397 128H279.369L268.791 92.396H236.283V128H219.9ZM267.114 50.6H236.283V79.109H267.63C275.112 79.109 279.369 74.207 279.369 64.79C279.369 55.115 275.241 50.6 267.114 50.6ZM342.864 129.419C319.386 129.419 307.905 116.648 307.905 92.654C307.905 68.918 319.644 56.147 342.864 56.147C365.955 56.147 375.759 69.176 375.759 90.332C375.759 92.396 375.501 94.073 375.372 95.879H322.74C323.385 110.972 329.319 117.422 343.38 117.422C354.603 117.422 360.666 113.423 361.053 104.78H375.372C374.211 120.776 363.246 129.419 342.864 129.419ZM342.864 67.628C330.48 67.628 324.546 73.046 322.998 85.559H361.44C360.795 74.336 356.28 67.628 342.864 67.628ZM418.317 129.419C398.451 129.419 387.873 116.777 387.873 92.912C387.873 68.918 398.451 56.147 418.317 56.147C428.637 56.147 437.022 61.307 442.053 69.95V31.25H457.404V128H442.053V115.745C437.022 124.388 428.637 129.419 418.317 129.419ZM422.445 117.164C435.345 117.164 442.053 109.166 442.053 92.912C442.053 76.529 435.345 68.402 422.445 68.402C409.545 68.402 403.611 76.013 403.611 92.912C403.611 109.424 409.545 117.164 422.445 117.164Z"/>
<path fill="#ffffff" d="M499.82 128V51.116H468.602V37.7H547.292V51.116H516.203V128H499.82ZM582.255 129.419C558.777 129.419 547.296 116.648 547.296 92.654C547.296 68.918 559.035 56.147 582.255 56.147C605.346 56.147 615.15 69.176 615.15 90.332C615.15 92.396 614.892 94.073 614.763 95.879H562.131C562.776 110.972 568.71 117.422 582.771 117.422C593.994 117.422 600.057 113.423 600.444 104.78H614.763C613.602 120.776 602.637 129.419 582.255 129.419ZM582.255 67.628C569.871 67.628 563.937 73.046 562.389 85.559H600.831C600.186 74.336 595.671 67.628 582.255 67.628ZM628.683 79.625C628.683 63.629 639.132 56.147 659.643 56.147C679.767 56.147 689.829 63.371 689.829 81.044V128H674.994V115.745C670.092 124.388 661.836 129.419 650.613 129.419C635.391 129.419 626.619 122.195 626.619 108.134C626.619 92.912 635.649 85.688 654.483 85.688H674.994V81.044C674.994 70.853 670.092 67.37 658.998 67.37C647.517 67.37 643.002 71.24 643.002 79.625H628.683ZM654.096 117.809C666.093 117.809 674.994 109.166 674.994 98.717V96.395H654.483C645.711 96.395 641.712 99.62 641.712 107.231C641.712 114.842 645.84 117.809 654.096 117.809ZM709.344 128V57.695H724.566V68.273C729.21 60.662 736.95 56.147 746.883 56.147C758.622 56.147 765.33 60.791 767.652 69.176C772.167 61.049 780.165 56.147 791.388 56.147C806.868 56.147 813.318 64.403 813.318 79.238V128H798.096V82.334C798.096 73.82 794.742 68.402 785.454 68.402C774.747 68.402 768.813 74.594 768.813 85.817V128H753.591V82.334C753.591 73.82 750.108 68.402 740.82 68.402C730.371 68.402 724.566 74.594 724.566 85.817V128H709.344Z"/>
<path fill="#ffffff" d="M61.6301 12.7936C64.5291 12.7936 66.8793 10.4434 66.8793 7.54438C66.8793 4.64532 64.5291 2.29517 61.6301 2.29517C58.731 2.29517 56.3809 4.64532 56.3809 7.54438C56.3809 10.4434 58.731 12.7936 61.6301 12.7936Z"/>
<path fill="#ffffff" d="M151.777 33.1174C155.943 33.1174 159.321 29.7397 159.321 25.5731C159.321 21.4065 155.943 18.0288 151.777 18.0288C147.61 18.0288 144.232 21.4065 144.232 25.5731C144.232 29.7397 147.61 33.1174 151.777 33.1174Z"/>
<path fill="#ffffff" d="M151.777 48.8513C154.676 48.8513 157.026 46.5012 157.026 43.6021C157.026 40.7031 154.676 38.3529 151.777 38.3529C148.878 38.3529 146.527 40.7031 146.527 43.6021C146.527 46.5012 148.878 48.8513 151.777 48.8513Z"/>
<path fill="#ffffff" d="M151.777 87.2042C155.943 87.2042 159.321 83.8265 159.321 79.6599C159.321 75.4933 155.943 72.1156 151.777 72.1156C147.61 72.1156 144.232 75.4933 144.232 79.6599C144.232 83.8265 147.61 87.2042 151.777 87.2042Z"/>
<path fill="#ffffff" d="M151.777 120.972C154.676 120.972 157.026 118.621 157.026 115.722C157.026 112.823 154.676 110.473 151.777 110.473C148.878 110.473 146.527 112.823 146.527 115.722C146.527 118.621 148.878 120.972 151.777 120.972Z"/>
<path fill="#ffffff" d="M151.777 141.296C155.943 141.296 159.321 137.918 159.321 133.751C159.321 129.585 155.943 126.207 151.777 126.207C147.61 126.207 144.232 129.585 144.232 133.751C144.232 137.918 147.61 141.296 151.777 141.296Z"/>
<path fill="#ffffff" d="M133.745 51.1465C137.912 51.1465 141.29 47.7688 141.29 43.6022C141.29 39.4356 137.912 36.0579 133.745 36.0579C129.579 36.0579 126.201 39.4356 126.201 43.6022C126.201 47.7688 129.579 51.1465 133.745 51.1465Z"/>
<path fill="#ffffff" d="M133.745 87.2042C137.912 87.2042 141.29 83.8265 141.29 79.6599C141.29 75.4933 137.912 72.1156 133.745 72.1156C129.579 72.1156 126.201 75.4933 126.201 79.6599C126.201 83.8265 129.579 87.2042 133.745 87.2042Z"/>
<path fill="#ffffff" d="M133.745 123.267C137.912 123.267 141.29 119.889 141.29 115.722C141.29 111.556 137.912 108.178 133.745 108.178C129.579 108.178 126.201 111.556 126.201 115.722C126.201 119.889 129.579 123.267 133.745 123.267Z"/>
<path fill="#ffffff" d="M115.716 51.1465C119.883 51.1465 123.26 47.7688 123.26 43.6022C123.26 39.4356 119.883 36.0579 115.716 36.0579C111.55 36.0579 108.172 39.4356 108.172 43.6022C108.172 47.7688 111.55 51.1465 115.716 51.1465Z"/>
<path fill="#ffffff" d="M115.716 69.1753C119.883 69.1753 123.26 65.7976 123.26 61.631C123.26 57.4644 119.883 54.0867 115.716 54.0867C111.55 54.0867 108.172 57.4644 108.172 61.631C108.172 65.7976 111.55 69.1753 115.716 69.1753Z"/>
<path fill="#ffffff" d="M115.716 87.2042C119.883 87.2042 123.26 83.8265 123.26 79.6599C123.26 75.4933 119.883 72.1156 115.716 72.1156C111.55 72.1156 108.172 75.4933 108.172 79.6599C108.172 83.8265 111.55 87.2042 115.716 87.2042Z"/>
<path fill="#ffffff" d="M115.716 105.233C119.883 105.233 123.26 101.855 123.26 97.6887C123.26 93.5221 119.883 90.1444 115.716 90.1444C111.55 90.1444 108.172 93.5221 108.172 97.6887C108.172 101.855 111.55 105.233 115.716 105.233Z"/>
<path fill="#ffffff" d="M115.716 123.267C119.883 123.267 123.26 119.889 123.26 115.722C123.26 111.556 119.883 108.178 115.716 108.178C111.55 108.178 108.172 111.556 108.172 115.722C108.172 119.889 111.55 123.267 115.716 123.267Z"/>
<path fill="#ffffff" d="M115.716 139.001C118.615 139.001 120.965 136.65 120.965 133.751C120.965 130.852 118.615 128.502 115.716 128.502C112.817 128.502 110.467 130.852 110.467 133.751C110.467 136.65 112.817 139.001 115.716 139.001Z"/>
<path fill="#ffffff" d="M97.6867 12.7936C100.586 12.7936 102.936 10.4434 102.936 7.54438C102.936 4.64532 100.586 2.29517 97.6867 2.29517C94.7877 2.29517 92.4375 4.64532 92.4375 7.54438C92.4375 10.4434 94.7877 12.7936 97.6867 12.7936Z"/>
<path fill="#ffffff" d="M97.6908 33.1174C101.857 33.1174 105.235 29.7397 105.235 25.5731C105.235 21.4065 101.857 18.0288 97.6908 18.0288C93.5242 18.0288 90.1465 21.4065 90.1465 25.5731C90.1465 29.7397 93.5242 33.1174 97.6908 33.1174Z"/>
<path fill="#ffffff" d="M97.6908 51.1465C101.857 51.1465 105.235 47.7688 105.235 43.6022C105.235 39.4356 101.857 36.0579 97.6908 36.0579C93.5242 36.0579 90.1465 39.4356 90.1465 43.6022C90.1465 47.7688 93.5242 51.1465 97.6908 51.1465Z"/>
<path fill="#ffffff" d="M97.6908 141.296C101.857 141.296 105.235 137.918 105.235 133.751C105.235 129.585 101.857 126.207 97.6908 126.207C93.5242 126.207 90.1465 129.585 90.1465 133.751C90.1465 137.918 93.5242 141.296 97.6908 141.296Z"/>
<path fill="#ffffff" d="M79.6595 15.0886C83.8261 15.0886 87.2038 11.7109 87.2038 7.54431C87.2038 3.37771 83.8261 0 79.6595 0C75.4929 0 72.1152 3.37771 72.1152 7.54431C72.1152 11.7109 75.4929 15.0886 79.6595 15.0886Z"/>
<path fill="#ffffff" d="M79.6595 33.2605C83.8261 33.2605 87.2038 29.8828 87.2038 25.7162C87.2038 21.5496 83.8261 18.1719 79.6595 18.1719C75.4929 18.1719 72.1152 21.5496 72.1152 25.7162C72.1152 29.8828 75.4929 33.2605 79.6595 33.2605Z"/>
<path fill="#ffffff" d="M79.6595 51.1465C83.8261 51.1465 87.2038 47.7688 87.2038 43.6022C87.2038 39.4356 83.8261 36.0579 79.6595 36.0579C75.4929 36.0579 72.1152 39.4356 72.1152 43.6022C72.1152 47.7688 75.4929 51.1465 79.6595 51.1465Z"/>
<path fill="#ffffff" d="M79.6595 141.296C83.8261 141.296 87.2038 137.918 87.2038 133.751C87.2038 129.585 83.8261 126.207 79.6595 126.207C75.4929 126.207 72.1152 129.585 72.1152 133.751C72.1152 137.918 75.4929 141.296 79.6595 141.296Z"/>
<path fill="#ffffff" d="M61.6302 33.1174C65.7968 33.1174 69.1745 29.7397 69.1745 25.5731C69.1745 21.4065 65.7968 18.0288 61.6302 18.0288C57.4636 18.0288 54.0859 21.4065 54.0859 25.5731C54.0859 29.7397 57.4636 33.1174 61.6302 33.1174Z"/>
<path fill="#ffffff" d="M61.6302 51.1465C65.7968 51.1465 69.1745 47.7688 69.1745 43.6022C69.1745 39.4356 65.7968 36.0579 61.6302 36.0579C57.4636 36.0579 54.0859 39.4356 54.0859 43.6022C54.0859 47.7688 57.4636 51.1465 61.6302 51.1465Z"/>
<path fill="#ffffff" d="M61.6302 141.296C65.7968 141.296 69.1745 137.918 69.1745 133.751C69.1745 129.585 65.7968 126.207 61.6302 126.207C57.4636 126.207 54.0859 129.585 54.0859 133.751C54.0859 137.918 57.4636 141.296 61.6302 141.296Z"/>
<path fill="#ffffff" d="M43.6009 51.1465C47.7675 51.1465 51.1452 47.7688 51.1452 43.6022C51.1452 39.4356 47.7675 36.0579 43.6009 36.0579C39.4343 36.0579 36.0566 39.4356 36.0566 43.6022C36.0566 47.7688 39.4343 51.1465 43.6009 51.1465Z"/>
<path fill="#ffffff" d="M43.6009 69.1753C47.7675 69.1753 51.1452 65.7976 51.1452 61.631C51.1452 57.4644 47.7675 54.0867 43.6009 54.0867C39.4343 54.0867 36.0566 57.4644 36.0566 61.631C36.0566 65.7976 39.4343 69.1753 43.6009 69.1753Z"/>
<path fill="#ffffff" d="M43.6009 87.2042C47.7675 87.2042 51.1452 83.8265 51.1452 79.6599C51.1452 75.4933 47.7675 72.1156 43.6009 72.1156C39.4343 72.1156 36.0566 75.4933 36.0566 79.6599C36.0566 83.8265 39.4343 87.2042 43.6009 87.2042Z"/>
<path fill="#ffffff" d="M43.6009 105.233C47.7675 105.233 51.1452 101.855 51.1452 97.6887C51.1452 93.5221 47.7675 90.1444 43.6009 90.1444C39.4343 90.1444 36.0566 93.5221 36.0566 97.6887C36.0566 101.855 39.4343 105.233 43.6009 105.233Z"/>
<path fill="#ffffff" d="M43.6009 123.267C47.7675 123.267 51.1452 119.889 51.1452 115.722C51.1452 111.556 47.7675 108.178 43.6009 108.178C39.4343 108.178 36.0566 111.556 36.0566 115.722C36.0566 119.889 39.4343 123.267 43.6009 123.267Z"/>
<path fill="#ffffff" d="M43.6008 139.001C46.4998 139.001 48.85 136.65 48.85 133.751C48.85 130.852 46.4998 128.502 43.6008 128.502C40.7017 128.502 38.3516 130.852 38.3516 133.751C38.3516 136.65 40.7017 139.001 43.6008 139.001Z"/>
<path fill="#ffffff" d="M25.5736 51.1465C29.7402 51.1465 33.1179 47.7688 33.1179 43.6022C33.1179 39.4356 29.7402 36.0579 25.5736 36.0579C21.407 36.0579 18.0293 39.4356 18.0293 43.6022C18.0293 47.7688 21.407 51.1465 25.5736 51.1465Z"/>
<path fill="#ffffff" d="M25.5736 87.2042C29.7402 87.2042 33.1179 83.8265 33.1179 79.6599C33.1179 75.4933 29.7402 72.1156 25.5736 72.1156C21.407 72.1156 18.0293 75.4933 18.0293 79.6599C18.0293 83.8265 21.407 87.2042 25.5736 87.2042Z"/>
<path fill="#ffffff" d="M25.5736 123.267C29.7402 123.267 33.1179 119.889 33.1179 115.722C33.1179 111.556 29.7402 108.178 25.5736 108.178C21.407 108.178 18.0293 111.556 18.0293 115.722C18.0293 119.889 21.407 123.267 25.5736 123.267Z"/>
<path fill="#ffffff" d="M7.5443 33.1174C11.7109 33.1174 15.0886 29.7397 15.0886 25.5731C15.0886 21.4065 11.7109 18.0288 7.5443 18.0288C3.3777 18.0288 0 21.4065 0 25.5731C0 29.7397 3.3777 33.1174 7.5443 33.1174Z"/>
<path fill="#ffffff" d="M7.54414 48.8513C10.4432 48.8513 12.7933 46.5012 12.7933 43.6021C12.7933 40.7031 10.4432 38.3529 7.54414 38.3529C4.64508 38.3529 2.29492 40.7031 2.29492 43.6021C2.29492 46.5012 4.64508 48.8513 7.54414 48.8513Z"/>
<path fill="#ffffff" d="M7.5443 87.2042C11.7109 87.2042 15.0886 83.8265 15.0886 79.6599C15.0886 75.4933 11.7109 72.1156 7.5443 72.1156C3.3777 72.1156 0 75.4933 0 79.6599C0 83.8265 3.3777 87.2042 7.5443 87.2042Z"/>
<path fill="#ffffff" d="M7.54414 120.972C10.4432 120.972 12.7933 118.621 12.7933 115.722C12.7933 112.823 10.4432 110.473 7.54414 110.473C4.64508 110.473 2.29492 112.823 2.29492 115.722C2.29492 118.621 4.64508 120.972 7.54414 120.972Z"/>
<path fill="#ffffff" d="M7.5443 141.296C11.7109 141.296 15.0886 137.918 15.0886 133.751C15.0886 129.585 11.7109 126.207 7.5443 126.207C3.3777 126.207 0 129.585 0 133.751C0 137.918 3.3777 141.296 7.5443 141.296Z"/>
</svg>